<svg xmlns="http://www.w3.org/2000/svg" xmlns:xlink="http://www.w3.org/1999/xlink" width="500" zoomAndPan="magnify" viewBox="0 0 375 374.999991" height="500" preserveAspectRatio="xMidYMid meet" version="1.0"><defs><g/><clipPath id="43b3b50ee5"><path d="M 65.410156 37.5 L 309.910156 37.5 L 309.910156 282 L 65.410156 282 Z M 65.410156 37.5 " clip-rule="nonzero"/></clipPath></defs><g clip-path="url(#43b3b50ee5)"><path fill="#f15267" d="M 309.910156 159.75 C 309.910156 227.28125 255.191406 282 187.660156 282 C 120.128906 282 65.410156 227.28125 65.410156 159.75 C 65.410156 92.21875 120.128906 37.5 187.660156 37.5 C 255.191406 37.5 309.910156 92.21875 309.910156 159.75 Z M 309.910156 159.75 " fill-opacity="1" fill-rule="nonzero"/></g><path fill="#ffffff" d="M 264.871094 144.785156 C 264.871094 188.355469 202.964844 224.542969 190.007812 231.683594 C 188.539062 232.511719 186.730469 232.511719 185.261719 231.683594 C 172.304688 224.589844 110.398438 188.40625 110.398438 144.785156 C 110.398438 144.492188 110.398438 144.152344 110.398438 143.859375 C 110.398438 143.660156 110.398438 143.417969 110.398438 143.222656 C 110.398438 142.097656 110.445312 140.972656 110.496094 139.847656 C 112.058594 117.792969 128.6875 100.433594 148.980469 100.433594 C 170.300781 100.433594 187.609375 119.601562 187.609375 143.222656 C 187.609375 119.601562 204.921875 100.433594 226.242188 100.433594 C 246.730469 100.433594 263.503906 118.085938 264.773438 140.433594 C 264.824219 141.363281 264.871094 142.292969 264.871094 143.222656 L 264.871094 143.269531 C 264.871094 143.808594 264.871094 144.296875 264.871094 144.785156 Z M 264.871094 144.785156 " fill-opacity="1" fill-rule="nonzero"/><path stroke-linecap="butt" transform="matrix(0.400715, 0, 0, 0.400715, 100.744546, 150.744732)" fill="none" stroke-linejoin="miter" d="M 155.068331 3.512748 C 158.333974 3.512748 160.732029 4.136632 162.272243 5.374652 C 163.831954 6.612672 164.611809 8.308857 164.611809 10.453459 C 164.611809 11.69148 164.416845 12.900255 164.026918 14.089534 L 150.75963 57.205781 C 150.584163 57.878407 150.486681 58.473046 150.486681 58.979952 C 150.486681 59.711066 150.632904 60.28621 150.905853 60.71513 C 151.188551 61.14405 151.588226 61.543726 152.104881 61.933654 C 152.494808 62.33333 152.777506 62.664768 152.943225 62.927969 C 153.128441 63.171674 153.157685 63.493364 153.030959 63.89304 C 152.758009 64.624154 152.192614 65.160305 151.334774 65.501492 C 150.496429 65.83293 149.19992 65.998649 147.454994 65.998649 L 128.173073 65.998649 C 126.720592 65.998649 125.648291 65.754945 124.975666 65.277283 C 124.293293 64.799622 124.059336 64.16599 124.293293 63.376386 C 124.517501 62.703761 125.112141 62.109121 126.067464 61.602215 C 126.905808 61.153799 127.607678 60.6079 128.173073 59.993764 C 128.738468 59.36988 129.225877 58.385313 129.625553 57.040062 L 142.46392 14.849893 C 142.639388 14.342987 142.727121 13.914067 142.727121 13.57288 C 142.727121 12.948996 142.57115 12.451838 142.24946 12.061911 C 141.947266 11.662235 141.54759 11.262559 141.040684 10.862883 C 140.475289 10.424215 140.056117 10.034287 139.802664 9.6931 C 139.549211 9.342166 139.510218 8.893749 139.675938 8.34785 C 140.017124 7.041593 141.791295 5.910803 144.99845 4.965228 C 148.215353 4.000157 151.578478 3.512748 155.068331 3.512748 Z M 181.271467 21.264203 C 184.546859 21.264203 186.935166 21.888087 188.455883 23.126107 C 189.976601 24.364127 190.746708 26.060312 190.746708 28.204914 C 190.746708 29.501424 190.541996 30.739444 190.14232 31.918975 L 182.363264 57.205781 C 182.197545 57.878407 182.119559 58.473046 182.119559 58.979952 C 182.119559 59.711066 182.256034 60.28621 182.528983 60.71513 C 182.821429 61.14405 183.221105 61.543726 183.728011 61.933654 C 184.10819 62.33333 184.390888 62.664768 184.546859 62.927969 C 184.732074 63.171674 184.761319 63.493364 184.654089 63.89304 C 184.361643 64.624154 183.796248 65.160305 182.938407 65.501492 C 182.100063 65.83293 180.803554 65.998649 179.058628 65.998649 L 159.805951 65.998649 C 158.333974 65.998649 157.251925 65.754945 156.5793 65.277283 C 155.906675 64.799622 155.682467 64.16599 155.896927 63.376386 C 156.130883 62.703761 156.725523 62.109121 157.671097 61.602215 C 158.528938 61.153799 159.240556 60.6079 159.805951 59.993764 C 160.361598 59.36988 160.839259 58.385313 161.229187 57.040062 L 168.598819 32.601348 C 168.764538 32.094442 168.842524 31.67527 168.842524 31.343832 C 168.842524 30.719948 168.696301 30.22279 168.413603 29.852359 C 168.130906 29.481927 167.711734 29.101748 167.146339 28.721569 C 166.590692 28.263404 166.191016 27.873476 165.957059 27.542037 C 165.732851 27.200851 165.703606 26.742686 165.869326 26.177291 C 166.210512 24.89053 167.994431 23.749991 171.191838 22.755676 C 174.418489 21.76136 177.771866 21.264203 181.271467 21.264203 Z M 186.944914 2.58667 C 189.138257 2.58667 190.961168 3.308036 192.413649 4.750768 C 193.885625 6.183752 194.626488 7.938426 194.626488 10.014791 C 194.626488 11.486768 194.246309 12.939248 193.48595 14.352736 C 192.735339 15.756475 191.663038 16.897013 190.269047 17.784099 C 188.894552 18.651688 187.354338 19.080608 185.667901 19.080608 C 183.533047 19.080608 181.73938 18.36899 180.296648 16.936006 C 178.863664 15.493274 178.122801 13.689859 178.07406 11.545257 C 178.07406 10.141517 178.434743 8.757274 179.165858 7.373031 C 179.896972 5.988788 180.93028 4.84825 182.285279 3.951416 C 183.640277 3.044835 185.199988 2.58667 186.944914 2.58667 Z M 240.121293 21.264203 C 243.328448 21.264203 245.90197 22.161036 247.84186 23.935207 C 249.791499 25.709378 250.776066 27.863728 250.776066 30.417754 C 250.776066 33.108254 249.957218 35.223612 248.319522 36.754078 C 246.681826 38.265047 244.537224 39.025406 241.895464 39.025406 C 239.526654 39.025406 237.693994 38.41127 236.387736 37.202494 C 235.091227 35.993719 234.477091 34.628972 234.545328 33.118002 C 233.979933 32.991276 233.502272 33.215484 233.102596 33.780879 C 232.70292 34.346275 232.283748 35.438072 231.84508 37.075768 C 231.552634 38.157817 231.016483 39.142384 230.236628 40.048966 C 234.057919 40.331664 236.904391 41.199252 238.756547 42.671229 C 240.628199 44.133458 241.564026 46.014859 241.564026 48.334928 C 241.564026 49.45597 241.369062 50.58676 240.969386 51.71755 L 240.287013 54.339813 C 240.179783 54.612763 240.121293 54.973446 240.121293 55.431611 C 240.121293 56.211466 240.481976 56.611142 241.213091 56.611142 C 241.885716 56.611142 242.470607 56.308948 242.948269 55.724056 C 243.435678 55.129417 243.757369 54.836971 243.923088 54.836971 C 244.205785 54.836971 244.439742 55.022187 244.605461 55.392618 C 244.761432 55.763049 244.849166 56.19197 244.849166 56.689127 C 244.907655 58.326823 244.410497 59.925527 243.357693 61.475489 C 242.334133 63.035199 240.754926 64.312212 238.639568 65.29678 C 236.533959 66.271599 233.979933 66.759008 230.996987 66.759008 C 227.380408 66.759008 224.368217 65.862175 221.979911 64.058759 C 219.581856 62.255344 218.382828 59.886534 218.382828 56.962077 C 218.382828 55.889776 218.616785 54.671252 219.065202 53.326002 L 220.673653 49.095287 C 220.956351 48.071727 221.092825 47.340613 221.092825 46.882448 C 221.092825 46.151333 220.849121 45.624931 220.371459 45.293493 C 219.903546 44.952306 219.152935 44.776838 218.139124 44.776838 L 216.442938 44.776838 L 212.650892 57.205781 C 212.465677 57.878407 212.377943 58.473046 212.377943 58.979952 C 212.377943 59.711066 212.514418 60.28621 212.787367 60.71513 C 213.079813 61.14405 213.479489 61.543726 213.986394 61.933654 C 214.38607 62.33333 214.668768 62.664768 214.834487 62.927969 C 215.009954 63.171674 215.039199 63.493364 214.922221 63.89304 C 214.639523 64.624154 214.074128 65.160305 213.226036 65.501492 C 212.387691 65.83293 211.091182 65.998649 209.346256 65.998649 L 190.064335 65.998649 C 188.602106 65.998649 187.539553 65.754945 186.866928 65.277283 C 186.174807 64.799622 185.950598 64.16599 186.184555 63.376386 C 186.408763 62.703761 186.993655 62.109121 187.958726 61.602215 C 188.79707 61.153799 189.49894 60.6079 190.064335 59.993764 C 190.62973 59.36988 191.107391 58.385313 191.507067 57.040062 L 204.345434 14.849893 C 204.53065 14.342987 204.618383 13.914067 204.618383 13.57288 C 204.618383 12.948996 204.462412 12.451838 204.140722 12.061911 C 203.838528 11.662235 203.429104 11.262559 202.922198 10.862883 C 202.356803 10.424215 201.947379 10.034287 201.684178 9.6931 C 201.440473 9.342166 201.40148 8.893749 201.557451 8.34785 C 201.908386 7.041593 203.682557 5.910803 206.889712 4.965228 C 210.106615 4.000157 213.46974 3.512748 216.959593 3.512748 C 220.225236 3.512748 222.613543 4.117135 224.124513 5.335659 C 225.654979 6.544435 226.415337 8.221124 226.415337 10.365726 C 226.415337 11.662235 226.220374 12.900255 225.840194 14.089534 L 218.470562 38.08958 L 221.278041 38.08958 C 222.389335 38.08958 223.295916 37.758141 223.997786 37.075768 C 224.719152 36.403143 225.274799 35.418575 225.674475 34.131814 C 227.078214 29.959589 228.910874 26.77193 231.162706 24.568839 C 233.424287 22.365748 236.407233 21.264203 240.121293 21.264203 Z M 277.749309 20.854779 C 284.904481 20.854779 290.090518 21.995317 293.297673 24.286142 C 296.514576 26.567218 298.123027 29.481927 298.123027 33.030269 C 298.123027 34.092822 298.006049 35.077389 297.772093 35.983971 C 296.933748 39.698031 294.584434 42.369035 290.714403 43.977487 C 286.863867 45.585938 282.311462 46.38529 277.066936 46.38529 C 274.415428 46.38529 271.929639 46.219571 269.619318 45.878384 C 269.560829 48.802841 270.360181 50.859709 271.988128 52.048989 C 273.625825 53.22852 275.916649 53.823159 278.850855 53.823159 C 280.196105 53.823159 281.492614 53.667188 282.730635 53.364994 C 283.968655 53.053052 285.547862 52.585139 287.478003 51.961255 C 289.047462 51.39586 290.110015 51.113162 290.67541 51.113162 C 291.289546 51.113162 291.601488 51.483594 291.601488 52.214708 C 291.659977 54.193591 290.919115 56.269955 289.398397 58.443802 C 287.877679 60.6079 285.625847 62.450308 282.642901 63.980774 C 279.659954 65.491743 276.053124 66.252102 271.832157 66.252102 C 265.564071 66.252102 260.436523 64.672895 256.430016 61.52423 C 252.433258 58.365816 250.444627 53.774418 250.444627 47.73054 C 250.444627 46.034355 250.659087 44.074969 251.107504 41.832885 C 252.520992 34.892173 255.611168 29.667143 260.368285 26.138298 C 265.135151 22.619201 270.925576 20.854779 277.749309 20.854779 Z M 270.213958 40.799577 C 270.438166 40.848318 270.750108 40.877562 271.149784 40.877562 C 273.508846 40.877562 275.312261 39.785765 276.550282 37.592422 C 277.79805 35.399079 278.382942 32.942535 278.334201 30.22279 C 278.275711 28.663079 277.827295 27.873476 276.98895 27.873476 C 276.365066 27.873476 275.633952 28.370634 274.776111 29.364949 C 273.937767 30.339768 273.10917 31.821493 272.280574 33.800376 C 271.471474 35.76951 270.779353 38.099328 270.213958 40.799577 Z M 270.213958 40.799577 " stroke="#f15267" stroke-width="16.805822" stroke-opacity="1" stroke-miterlimit="4"/><g fill="#ffffff" fill-opacity="1"><g transform="translate(152.073683, 177.191947)"><g><path d="M 10.8125 -25.03125 C 12.113281 -25.03125 13.078125 -24.78125 13.703125 -24.28125 C 14.328125 -23.789062 14.640625 -23.113281 14.640625 -22.25 C 14.640625 -21.757812 14.554688 -21.273438 14.390625 -20.796875 L 9.078125 -3.515625 C 9.015625 -3.242188 8.984375 -3.007812 8.984375 -2.8125 C 8.984375 -2.519531 9.035156 -2.285156 9.140625 -2.109375 C 9.253906 -1.941406 9.414062 -1.78125 9.625 -1.625 C 9.78125 -1.46875 9.890625 -1.335938 9.953125 -1.234375 C 10.023438 -1.128906 10.039062 -1 10 -0.84375 C 9.882812 -0.550781 9.65625 -0.335938 9.3125 -0.203125 C 8.976562 -0.0664062 8.457031 0 7.75 0 L 0.03125 0 C -0.550781 0 -0.976562 -0.09375 -1.25 -0.28125 C -1.519531 -0.476562 -1.613281 -0.734375 -1.53125 -1.046875 C -1.4375 -1.316406 -1.195312 -1.554688 -0.8125 -1.765625 C -0.476562 -1.941406 -0.195312 -2.15625 0.03125 -2.40625 C 0.257812 -2.65625 0.453125 -3.050781 0.609375 -3.59375 L 5.765625 -20.5 C 5.828125 -20.695312 5.859375 -20.863281 5.859375 -21 C 5.859375 -21.25 5.796875 -21.453125 5.671875 -21.609375 C 5.546875 -21.765625 5.382812 -21.925781 5.1875 -22.09375 C 4.957031 -22.269531 4.789062 -22.425781 4.6875 -22.5625 C 4.59375 -22.695312 4.578125 -22.878906 4.640625 -23.109375 C 4.773438 -23.617188 5.484375 -24.066406 6.765625 -24.453125 C 8.054688 -24.835938 9.40625 -25.03125 10.8125 -25.03125 Z M 10.8125 -25.03125 "/></g></g></g><g fill="#ffffff" fill-opacity="1"><g transform="translate(164.473475, 177.191947)"><g><path d="M 8.921875 -17.921875 C 10.222656 -17.921875 11.175781 -17.671875 11.78125 -17.171875 C 12.394531 -16.671875 12.703125 -15.992188 12.703125 -15.140625 C 12.703125 -14.617188 12.625 -14.125 12.46875 -13.65625 L 9.359375 -3.515625 C 9.285156 -3.242188 9.25 -3.007812 9.25 -2.8125 C 9.25 -2.519531 9.304688 -2.285156 9.421875 -2.109375 C 9.535156 -1.941406 9.695312 -1.78125 9.90625 -1.625 C 10.0625 -1.46875 10.171875 -1.335938 10.234375 -1.234375 C 10.304688 -1.128906 10.316406 -1 10.265625 -0.84375 C 10.160156 -0.550781 9.9375 -0.335938 9.59375 -0.203125 C 9.257812 -0.0664062 8.738281 0 8.03125 0 L 0.3125 0 C -0.269531 0 -0.695312 -0.09375 -0.96875 -0.28125 C -1.238281 -0.476562 -1.332031 -0.734375 -1.25 -1.046875 C -1.15625 -1.316406 -0.914062 -1.554688 -0.53125 -1.765625 C -0.195312 -1.941406 0.0820312 -2.15625 0.3125 -2.40625 C 0.539062 -2.65625 0.734375 -3.050781 0.890625 -3.59375 L 3.828125 -13.375 C 3.898438 -13.582031 3.9375 -13.753906 3.9375 -13.890625 C 3.9375 -14.140625 3.878906 -14.335938 3.765625 -14.484375 C 3.648438 -14.628906 3.484375 -14.78125 3.265625 -14.9375 C 3.035156 -15.113281 2.875 -15.269531 2.78125 -15.40625 C 2.695312 -15.539062 2.6875 -15.722656 2.75 -15.953125 C 2.882812 -16.472656 3.59375 -16.929688 4.875 -17.328125 C 6.164062 -17.722656 7.515625 -17.921875 8.921875 -17.921875 Z M 11.1875 -25.40625 C 12.0625 -25.40625 12.789062 -25.113281 13.375 -24.53125 C 13.96875 -23.957031 14.265625 -23.253906 14.265625 -22.421875 C 14.265625 -21.835938 14.113281 -21.257812 13.8125 -20.6875 C 13.507812 -20.125 13.078125 -19.664062 12.515625 -19.3125 C 11.960938 -18.96875 11.347656 -18.796875 10.671875 -18.796875 C 9.816406 -18.796875 9.097656 -19.082031 8.515625 -19.65625 C 7.941406 -20.238281 7.644531 -20.957031 7.625 -21.8125 C 7.625 -22.375 7.769531 -22.929688 8.0625 -23.484375 C 8.363281 -24.046875 8.785156 -24.503906 9.328125 -24.859375 C 9.867188 -25.222656 10.488281 -25.40625 11.1875 -25.40625 Z M 11.1875 -25.40625 "/></g></g></g><g fill="#ffffff" fill-opacity="1"><g transform="translate(176.873268, 177.191947)"><g><path d="M 20.09375 -17.921875 C 21.375 -17.921875 22.40625 -17.5625 23.1875 -16.84375 C 23.96875 -16.132812 24.359375 -15.273438 24.359375 -14.265625 C 24.359375 -13.179688 24.03125 -12.332031 23.375 -11.71875 C 22.71875 -11.113281 21.859375 -10.8125 20.796875 -10.8125 C 19.847656 -10.8125 19.113281 -11.050781 18.59375 -11.53125 C 18.070312 -12.019531 17.828125 -12.566406 17.859375 -13.171875 C 17.628906 -13.222656 17.4375 -13.132812 17.28125 -12.90625 C 17.125 -12.675781 16.953125 -12.234375 16.765625 -11.578125 C 16.648438 -11.148438 16.4375 -10.757812 16.125 -10.40625 C 17.65625 -10.289062 18.789062 -9.9375 19.53125 -9.34375 C 20.28125 -8.757812 20.65625 -8.003906 20.65625 -7.078125 C 20.65625 -6.628906 20.578125 -6.175781 20.421875 -5.71875 L 20.15625 -4.671875 C 20.113281 -4.554688 20.09375 -4.410156 20.09375 -4.234375 C 20.09375 -3.921875 20.238281 -3.765625 20.53125 -3.765625 C 20.800781 -3.765625 21.03125 -3.878906 21.21875 -4.109375 C 21.414062 -4.347656 21.546875 -4.46875 21.609375 -4.46875 C 21.722656 -4.46875 21.8125 -4.394531 21.875 -4.25 C 21.945312 -4.101562 21.984375 -3.925781 21.984375 -3.71875 C 22.003906 -3.070312 21.804688 -2.4375 21.390625 -1.8125 C 20.972656 -1.1875 20.335938 -0.675781 19.484375 -0.28125 C 18.640625 0.113281 17.617188 0.3125 16.421875 0.3125 C 14.984375 0.3125 13.78125 -0.046875 12.8125 -0.765625 C 11.851562 -1.492188 11.375 -2.445312 11.375 -3.625 C 11.375 -4.050781 11.46875 -4.535156 11.65625 -5.078125 L 12.296875 -6.78125 C 12.410156 -7.1875 12.46875 -7.476562 12.46875 -7.65625 C 12.46875 -7.945312 12.367188 -8.160156 12.171875 -8.296875 C 11.984375 -8.429688 11.6875 -8.5 11.28125 -8.5 L 10.609375 -8.5 L 9.078125 -3.515625 C 9.015625 -3.242188 8.984375 -3.007812 8.984375 -2.8125 C 8.984375 -2.519531 9.035156 -2.285156 9.140625 -2.109375 C 9.253906 -1.941406 9.414062 -1.78125 9.625 -1.625 C 9.78125 -1.46875 9.890625 -1.335938 9.953125 -1.234375 C 10.023438 -1.128906 10.039062 -1 10 -0.84375 C 9.882812 -0.550781 9.65625 -0.335938 9.3125 -0.203125 C 8.976562 -0.0664062 8.457031 0 7.75 0 L 0.03125 0 C -0.550781 0 -0.976562 -0.09375 -1.25 -0.28125 C -1.519531 -0.476562 -1.613281 -0.734375 -1.53125 -1.046875 C -1.4375 -1.316406 -1.195312 -1.554688 -0.8125 -1.765625 C -0.476562 -1.941406 -0.195312 -2.15625 0.03125 -2.40625 C 0.257812 -2.65625 0.453125 -3.050781 0.609375 -3.59375 L 5.765625 -20.5 C 5.828125 -20.695312 5.859375 -20.863281 5.859375 -21 C 5.859375 -21.25 5.796875 -21.453125 5.671875 -21.609375 C 5.546875 -21.765625 5.382812 -21.925781 5.1875 -22.09375 C 4.957031 -22.269531 4.789062 -22.425781 4.6875 -22.5625 C 4.59375 -22.695312 4.578125 -22.878906 4.640625 -23.109375 C 4.773438 -23.617188 5.484375 -24.066406 6.765625 -24.453125 C 8.054688 -24.835938 9.40625 -25.03125 10.8125 -25.03125 C 12.113281 -25.03125 13.066406 -24.785156 13.671875 -24.296875 C 14.285156 -23.816406 14.59375 -23.148438 14.59375 -22.296875 C 14.59375 -21.773438 14.515625 -21.273438 14.359375 -20.796875 L 11.421875 -11.171875 L 12.53125 -11.171875 C 12.988281 -11.171875 13.359375 -11.304688 13.640625 -11.578125 C 13.921875 -11.847656 14.140625 -12.242188 14.296875 -12.765625 C 14.859375 -14.441406 15.59375 -15.71875 16.5 -16.59375 C 17.40625 -17.476562 18.601562 -17.921875 20.09375 -17.921875 Z M 20.09375 -17.921875 "/></g></g></g><g fill="#ffffff" fill-opacity="1"><g transform="translate(200.554834, 177.191947)"><g><path d="M 11.484375 -18.09375 C 14.347656 -18.09375 16.421875 -17.632812 17.703125 -16.71875 C 18.992188 -15.800781 19.640625 -14.632812 19.640625 -13.21875 C 19.640625 -12.78125 19.597656 -12.382812 19.515625 -12.03125 C 19.171875 -10.539062 18.222656 -9.472656 16.671875 -8.828125 C 15.128906 -8.179688 13.3125 -7.859375 11.21875 -7.859375 C 10.15625 -7.859375 9.160156 -7.925781 8.234375 -8.0625 C 8.210938 -6.882812 8.523438 -6.054688 9.171875 -5.578125 C 9.828125 -5.109375 10.742188 -4.875 11.921875 -4.875 C 12.460938 -4.875 12.984375 -4.9375 13.484375 -5.0625 C 13.984375 -5.1875 14.613281 -5.375 15.375 -5.625 C 16.007812 -5.851562 16.441406 -5.96875 16.671875 -5.96875 C 16.921875 -5.96875 17.046875 -5.816406 17.046875 -5.515625 C 17.066406 -4.734375 16.769531 -3.90625 16.15625 -3.03125 C 15.550781 -2.164062 14.648438 -1.425781 13.453125 -0.8125 C 12.253906 -0.195312 10.804688 0.109375 9.109375 0.109375 C 6.609375 0.109375 4.554688 -0.519531 2.953125 -1.78125 C 1.347656 -3.050781 0.546875 -4.894531 0.546875 -7.3125 C 0.546875 -7.988281 0.632812 -8.78125 0.8125 -9.6875 C 1.375 -12.46875 2.609375 -14.5625 4.515625 -15.96875 C 6.429688 -17.382812 8.753906 -18.09375 11.484375 -18.09375 Z M 8.46875 -10.09375 C 8.5625 -10.070312 8.6875 -10.0625 8.84375 -10.0625 C 9.789062 -10.0625 10.507812 -10.5 11 -11.375 C 11.5 -12.257812 11.738281 -13.242188 11.71875 -14.328125 C 11.695312 -14.960938 11.515625 -15.28125 11.171875 -15.28125 C 10.929688 -15.28125 10.640625 -15.082031 10.296875 -14.6875 C 9.960938 -14.289062 9.628906 -13.695312 9.296875 -12.90625 C 8.972656 -12.113281 8.695312 -11.175781 8.46875 -10.09375 Z M 8.46875 -10.09375 "/></g></g></g><g fill="#ffffff" fill-opacity="1"><g transform="translate(219.531614, 177.191947)"><g/></g></g></svg>